<?xml version="1.0" encoding="UTF-8" standalone="no"?>
<!DOCTYPE svg PUBLIC "-//W3C//DTD SVG 1.1//EN"
 "http://www.w3.org/Graphics/SVG/1.1/DTD/svg11.dtd">
<!-- Generated by graphviz version 2.40.1 (20161225.0304)
 -->
<!-- Title: %3 Pages: 1 -->
<svg width="285pt" height="367pt"
 viewBox="36.00 36.00 248.66 330.56" xmlns="http://www.w3.org/2000/svg" xmlns:xlink="http://www.w3.org/1999/xlink">
<g id="graph0" class="graph" transform="scale(1 1) rotate(0) translate(40 326.56)">
<title>%3</title>
<polygon fill="#ffffff" stroke="transparent" points="-4,4 -4,-290.56 208.6594,-290.56 208.6594,4 -4,4"/>
<!-- 1 -->
<g id="node1" class="node">
<title>1</title>
<ellipse fill="#000000" stroke="#000000" cx="116.6594" cy="-284.4" rx="2.16" ry="2.16"/>
</g>
<!-- 19 -->
<g id="node2" class="node">
<title>19</title>
<ellipse fill="#000000" stroke="#000000" cx="65.6594" cy="-253.08" rx="2.16" ry="2.16"/>
</g>
<!-- 1&#45;&gt;19 -->
<g id="edge1" class="edge">
<title>1&#45;&gt;19</title>
<path fill="none" stroke="#000000" stroke-width="3" d="M114.468,-283.0542C108.0452,-279.1099 88.9446,-267.3798 76.6296,-259.817"/>
<polygon fill="#000000" stroke="#000000" stroke-width="3" points="78.139,-256.6366 67.7859,-254.3859 74.4757,-262.6016 78.139,-256.6366"/>
</g>
<!-- 11 -->
<g id="node5" class="node">
<title>11</title>
<ellipse fill="#000000" stroke="#000000" cx="10.6594" cy="-200.76" rx="2.16" ry="2.16"/>
</g>
<!-- 19&#45;&gt;11 -->
<g id="edge6" class="edge">
<title>19&#45;&gt;11</title>
<path fill="none" stroke="#00ff00" stroke-width="6" stroke-dasharray="5,2" d="M63.4646,-252.8673C53.6461,-251.8669 13.9184,-247.28 6.6594,-237.92 1.0613,-230.7016 2.83,-220.1845 5.556,-212.1797"/>
<polygon fill="#00ff00" stroke="#00ff00" stroke-width="6" points="10.4997,-213.9709 9.5985,-202.7125 .8432,-209.8476 10.4997,-213.9709"/>
<text text-anchor="middle" x="17.6594" y="-221.92" font-family="Times,serif" font-size="20.00" fill="#000000">+2</text>
</g>
<!-- 19&#45;&gt;11 -->
<g id="edge7" class="edge">
<title>19&#45;&gt;11</title>
<path fill="none" stroke="#00ff00" stroke-width="6" d="M64.2844,-251.2379C60.0011,-245.5689 46.3628,-228.036 32.6594,-215.92 29.2192,-212.8783 25.1497,-209.922 21.452,-207.4399"/>
<polygon fill="#00ff00" stroke="#00ff00" stroke-width="6" points="24.1057,-202.9068 12.846,-202.0227 18.5122,-211.7929 24.1057,-202.9068"/>
<text text-anchor="middle" x="61.1594" y="-221.92" font-family="Times,serif" font-size="20.00" fill="#000000">&#45;2</text>
</g>
<!-- 7 -->
<g id="node3" class="node">
<title>7</title>
<ellipse fill="#000000" stroke="#000000" cx="34.6594" cy="-117.12" rx="2.16" ry="2.16"/>
</g>
<!-- 25 -->
<g id="node4" class="node">
<title>25</title>
<ellipse fill="#000000" stroke="#000000" cx="34.6594" cy="-85.8" rx="2.16" ry="2.16"/>
</g>
<!-- 7&#45;&gt;25 -->
<g id="edge2" class="edge">
<title>7&#45;&gt;25</title>
<path fill="none" stroke="#000000" stroke-width="3" d="M34.6594,-114.6624C34.6594,-111.169 34.6594,-104.52 34.6594,-98.4837"/>
<polygon fill="#000000" stroke="#000000" stroke-width="3" points="38.1595,-98.1605 34.6594,-88.1605 31.1595,-98.1605 38.1595,-98.1605"/>
</g>
<!-- 21 -->
<g id="node7" class="node">
<title>21</title>
<ellipse fill="#000000" stroke="#000000" cx="65.6594" cy="-33.48" rx="2.16" ry="2.16"/>
</g>
<!-- 25&#45;&gt;21 -->
<g id="edge9" class="edge">
<title>25&#45;&gt;21</title>
<path fill="none" stroke="#00ff00" stroke-width="6" stroke-dasharray="5,2" d="M32.309,-85.211C27.0975,-83.763 14.6405,-79.4859 9.6594,-70.64 4.8619,-62.1201 3.7171,-56.4049 9.6594,-48.64 14.9146,-41.773 38.3125,-37.2977 53.1517,-35.095"/>
<polygon fill="#00ff00" stroke="#00ff00" stroke-width="6" points="54.0985,-40.2654 63.318,-33.7414 52.7125,-29.8573 54.0985,-40.2654"/>
<text text-anchor="middle" x="20.6594" y="-54.64" font-family="Times,serif" font-size="20.00" fill="#000000">+4</text>
</g>
<!-- 25&#45;&gt;21 -->
<g id="edge10" class="edge">
<title>25&#45;&gt;21</title>
<path fill="none" stroke="#00ff00" stroke-width="6" d="M35.9915,-83.5519C39.9354,-76.8956 51.7435,-56.9666 59.2192,-44.3495"/>
<polygon fill="#00ff00" stroke="#00ff00" stroke-width="6" points="63.7861,-46.941 64.3669,-35.6615 54.7526,-41.5886 63.7861,-46.941"/>
<text text-anchor="middle" x="64.1594" y="-54.64" font-family="Times,serif" font-size="20.00" fill="#000000">&#45;4</text>
</g>
<!-- 17 -->
<g id="node6" class="node">
<title>17</title>
<ellipse fill="#000000" stroke="#000000" cx="10.6594" cy="-169.44" rx="2.16" ry="2.16"/>
</g>
<!-- 11&#45;&gt;17 -->
<g id="edge3" class="edge">
<title>11&#45;&gt;17</title>
<path fill="none" stroke="#000000" stroke-width="3" d="M10.6594,-198.3024C10.6594,-194.809 10.6594,-188.16 10.6594,-182.1237"/>
<polygon fill="#000000" stroke="#000000" stroke-width="3" points="14.1595,-181.8005 10.6594,-171.8005 7.1595,-181.8005 14.1595,-181.8005"/>
</g>
<!-- 17&#45;&gt;7 -->
<g id="edge4" class="edge">
<title>17&#45;&gt;7</title>
<path fill="none" stroke="#00ff00" stroke-width="6" d="M9.3687,-167.5718C5.5742,-161.8279 -4.8215,-144.1022 2.6594,-132.28 6.9862,-125.4424 15.3232,-121.6283 22.4028,-119.5362"/>
<polygon fill="#00ff00" stroke="#00ff00" stroke-width="6" points="23.7555,-124.6154 32.4275,-117.3794 21.5469,-114.3503 23.7555,-124.6154"/>
<text text-anchor="middle" x="11.1594" y="-138.28" font-family="Times,serif" font-size="20.00" fill="#000000">&#45;1</text>
</g>
<!-- 17&#45;&gt;7 -->
<g id="edge5" class="edge">
<title>17&#45;&gt;7</title>
<path fill="none" stroke="#00ff00" stroke-width="6" stroke-dasharray="5,2" d="M12.4424,-167.8468C15.2285,-165.2637 20.6104,-159.8837 23.6594,-154.28 27.862,-146.5565 30.6404,-137.0345 32.3536,-129.563"/>
<polygon fill="#00ff00" stroke="#00ff00" stroke-width="6" points="37.5345,-130.4241 34.2943,-119.6045 27.2283,-128.4156 37.5345,-130.4241"/>
<text text-anchor="middle" x="39.1594" y="-138.28" font-family="Times,serif" font-size="20.00" fill="#000000">&#45;3</text>
</g>
<!-- 27 -->
<g id="node8" class="node">
<title>27</title>
<ellipse fill="#000000" stroke="#000000" cx="116.6594" cy="-2.16" rx="2.16" ry="2.16"/>
</g>
<!-- 21&#45;&gt;27 -->
<g id="edge8" class="edge">
<title>21&#45;&gt;27</title>
<path fill="none" stroke="#000000" stroke-width="3" d="M67.8509,-32.1342C74.2737,-28.1899 93.3743,-16.4598 105.6893,-8.897"/>
<polygon fill="#000000" stroke="#000000" stroke-width="3" points="107.8432,-11.6816 114.533,-3.4659 104.1799,-5.7166 107.8432,-11.6816"/>
</g>
<!-- 27&#45;&gt;1 -->
<g id="edge11" class="edge">
<title>27&#45;&gt;1</title>
<path fill="none" stroke="#00ff00" stroke-width="6" stroke-dasharray="5,2" d="M116.6594,-4.4393C116.6594,-9.606 116.6594,-22.605 116.6594,-33.48 116.6594,-253.08 116.6594,-253.08 116.6594,-253.08 116.6594,-259.1972 116.6594,-265.9864 116.6594,-271.6757"/>
<polygon fill="#00ff00" stroke="#00ff00" stroke-width="6" points="111.4095,-272.1207 116.6594,-282.1207 121.9095,-272.1208 111.4095,-272.1207"/>
<text text-anchor="middle" x="127.6594" y="-138.28" font-family="Times,serif" font-size="20.00" fill="#000000">+1</text>
</g>
<!-- 27&#45;&gt;1 -->
<g id="edge12" class="edge">
<title>27&#45;&gt;1</title>
<path fill="none" stroke="#00ff00" stroke-width="6" d="M118.8554,-2.6832C130.3074,-5.4737 182.6594,-19.0213 182.6594,-33.48 182.6594,-253.08 182.6594,-253.08 182.6594,-253.08 182.6594,-264.8842 147.7658,-276.0811 128.7217,-281.313"/>
<polygon fill="#00ff00" stroke="#00ff00" stroke-width="6" points="127.2135,-276.2805 118.8554,-283.8768 129.8544,-286.443 127.2135,-276.2805"/>
<text text-anchor="middle" x="193.6594" y="-138.28" font-family="Times,serif" font-size="20.00" fill="#000000">+3</text>
</g>
</g>
</svg>
