<?xml version="1.0" encoding="UTF-8" standalone="no"?>
<!DOCTYPE svg PUBLIC "-//W3C//DTD SVG 1.1//EN"
 "http://www.w3.org/Graphics/SVG/1.1/DTD/svg11.dtd">
<!-- Generated by graphviz version 2.40.1 (20161225.0304)
 -->
<!-- Title: %3 Pages: 1 -->
<svg width="165pt" height="294pt"
 viewBox="36.00 36.00 128.95 257.60" xmlns="http://www.w3.org/2000/svg" xmlns:xlink="http://www.w3.org/1999/xlink">
<g id="graph0" class="graph" transform="scale(1 1) rotate(0) translate(40 253.6)">
<title>%3</title>
<polygon fill="#ffffff" stroke="transparent" points="-4,4 -4,-217.6 88.9536,-217.6 88.9536,4 -4,4"/>
<!-- 0 -->
<g id="node1" class="node">
<title>0</title>
<ellipse fill="#000000" stroke="#000000" cx="3.9536" cy="-211.44" rx="2.16" ry="2.16"/>
</g>
<!-- 16 -->
<g id="node2" class="node">
<title>16</title>
<ellipse fill="#000000" stroke="#000000" cx="3.9536" cy="-159.12" rx="2.16" ry="2.16"/>
</g>
<!-- 0&#45;&gt;16 -->
<g id="edge1" class="edge">
<title>0&#45;&gt;16</title>
<path fill="none" stroke="#00ff00" stroke-width="6" stroke-dasharray="5,2" d="M3.9536,-209.1919C3.9536,-202.8045 3.9536,-184.1953 3.9536,-171.5533"/>
<polygon fill="#00ff00" stroke="#00ff00" stroke-width="6" points="9.2037,-171.3015 3.9536,-161.3015 -1.2963,-171.3016 9.2037,-171.3015"/>
<text text-anchor="middle" x="12.4536" y="-180.28" font-family="Times,serif" font-size="20.00" fill="#000000">&#45;3</text>
</g>
<!-- 17 -->
<g id="node3" class="node">
<title>17</title>
<ellipse fill="#000000" stroke="#000000" cx="3.9536" cy="-106.8" rx="2.16" ry="2.16"/>
</g>
<!-- 16&#45;&gt;17 -->
<g id="edge2" class="edge">
<title>16&#45;&gt;17</title>
<path fill="none" stroke="#00ff00" stroke-width="6" stroke-dasharray="5,2" d="M3.3927,-156.9807C2.6594,-154.0627 1.4141,-148.6595 .9536,-143.96 0,-134.2288 0,-131.6912 .9536,-121.96 1.0543,-120.932 1.1926,-119.8703 1.3549,-118.8083"/>
<polygon fill="#00ff00" stroke="#00ff00" stroke-width="6" points="6.512,-119.7944 3.3927,-108.9393 -3.7711,-117.671 6.512,-119.7944"/>
<text text-anchor="middle" x="11.9536" y="-127.96" font-family="Times,serif" font-size="20.00" fill="#000000">+4</text>
</g>
<!-- 18 -->
<g id="node4" class="node">
<title>18</title>
<ellipse fill="#000000" stroke="#000000" cx="3.9536" cy="-54.48" rx="2.16" ry="2.16"/>
</g>
<!-- 17&#45;&gt;18 -->
<g id="edge3" class="edge">
<title>17&#45;&gt;18</title>
<path fill="none" stroke="#00ff00" stroke-width="6" stroke-dasharray="5,2" d="M3.3927,-104.6607C2.6594,-101.7427 1.4141,-96.3395 .9536,-91.64 0,-81.9088 0,-79.3712 .9536,-69.64 1.0543,-68.612 1.1926,-67.5503 1.3549,-66.4883"/>
<polygon fill="#00ff00" stroke="#00ff00" stroke-width="6" points="6.512,-67.4744 3.3927,-56.6193 -3.7711,-65.351 6.512,-67.4744"/>
<text text-anchor="middle" x="11.9536" y="-75.64" font-family="Times,serif" font-size="20.00" fill="#000000">+1</text>
</g>
<!-- 1 -->
<g id="node5" class="node">
<title>1</title>
<ellipse fill="#000000" stroke="#000000" cx="3.9536" cy="-2.16" rx="2.16" ry="2.16"/>
</g>
<!-- 18&#45;&gt;1 -->
<g id="edge4" class="edge">
<title>18&#45;&gt;1</title>
<path fill="none" stroke="#00ff00" stroke-width="6" stroke-dasharray="5,2" d="M3.3927,-52.3407C2.6594,-49.4227 1.4141,-44.0195 .9536,-39.32 0,-29.5888 0,-27.0512 .9536,-17.32 1.0543,-16.292 1.1926,-15.2303 1.3549,-14.1683"/>
<polygon fill="#00ff00" stroke="#00ff00" stroke-width="6" points="6.512,-15.1544 3.3927,-4.2993 -3.7711,-13.031 6.512,-15.1544"/>
<text text-anchor="middle" x="11.9536" y="-23.32" font-family="Times,serif" font-size="20.00" fill="#000000">+2</text>
</g>
<!-- 2 -->
<g id="node6" class="node">
<title>2</title>
<ellipse fill="#000000" stroke="#000000" cx="62.9536" cy="-211.44" rx="2.16" ry="2.16"/>
</g>
<!-- 20 -->
<g id="node7" class="node">
<title>20</title>
<ellipse fill="#000000" stroke="#000000" cx="62.9536" cy="-159.12" rx="2.16" ry="2.16"/>
</g>
<!-- 2&#45;&gt;20 -->
<g id="edge5" class="edge">
<title>2&#45;&gt;20</title>
<path fill="none" stroke="#00ff00" stroke-width="6" d="M62.9536,-209.1919C62.9536,-202.8045 62.9536,-184.1953 62.9536,-171.5533"/>
<polygon fill="#00ff00" stroke="#00ff00" stroke-width="6" points="68.2037,-171.3015 62.9536,-161.3015 57.7037,-171.3016 68.2037,-171.3015"/>
<text text-anchor="middle" x="71.4536" y="-180.28" font-family="Times,serif" font-size="20.00" fill="#000000">&#45;2</text>
</g>
<!-- 21 -->
<g id="node8" class="node">
<title>21</title>
<ellipse fill="#000000" stroke="#000000" cx="62.9536" cy="-106.8" rx="2.16" ry="2.16"/>
</g>
<!-- 20&#45;&gt;21 -->
<g id="edge6" class="edge">
<title>20&#45;&gt;21</title>
<path fill="none" stroke="#00ff00" stroke-width="6" d="M62.9536,-156.8719C62.9536,-150.4845 62.9536,-131.8753 62.9536,-119.2333"/>
<polygon fill="#00ff00" stroke="#00ff00" stroke-width="6" points="68.2037,-118.9815 62.9536,-108.9815 57.7037,-118.9816 68.2037,-118.9815"/>
<text text-anchor="middle" x="71.4536" y="-127.96" font-family="Times,serif" font-size="20.00" fill="#000000">&#45;1</text>
</g>
<!-- 22 -->
<g id="node9" class="node">
<title>22</title>
<ellipse fill="#000000" stroke="#000000" cx="62.9536" cy="-54.48" rx="2.16" ry="2.16"/>
</g>
<!-- 21&#45;&gt;22 -->
<g id="edge7" class="edge">
<title>21&#45;&gt;22</title>
<path fill="none" stroke="#00ff00" stroke-width="6" d="M62.9536,-104.5519C62.9536,-98.1645 62.9536,-79.5553 62.9536,-66.9133"/>
<polygon fill="#00ff00" stroke="#00ff00" stroke-width="6" points="68.2037,-66.6615 62.9536,-56.6615 57.7037,-66.6616 68.2037,-66.6615"/>
<text text-anchor="middle" x="71.4536" y="-75.64" font-family="Times,serif" font-size="20.00" fill="#000000">&#45;4</text>
</g>
<!-- 3 -->
<g id="node10" class="node">
<title>3</title>
<ellipse fill="#000000" stroke="#000000" cx="62.9536" cy="-2.16" rx="2.16" ry="2.16"/>
</g>
<!-- 22&#45;&gt;3 -->
<g id="edge8" class="edge">
<title>22&#45;&gt;3</title>
<path fill="none" stroke="#00ff00" stroke-width="6" d="M62.9536,-52.2319C62.9536,-45.8445 62.9536,-27.2353 62.9536,-14.5933"/>
<polygon fill="#00ff00" stroke="#00ff00" stroke-width="6" points="68.2037,-14.3415 62.9536,-4.3415 57.7037,-14.3416 68.2037,-14.3415"/>
<text text-anchor="middle" x="73.9536" y="-23.32" font-family="Times,serif" font-size="20.00" fill="#000000">+3</text>
</g>
</g>
</svg>
